<?xml version="1.0" encoding="utf-8"?>
<!-- Generator: Adobe Illustrator 26.0.0, SVG Export Plug-In . SVG Version: 6.00 Build 0)  -->
<svg version="1.1" id="Capa_1" xmlns="http://www.w3.org/2000/svg" xmlns:xlink="http://www.w3.org/1999/xlink" x="0px" y="0px"
	 viewBox="0 0 800 800" style="enable-background:new 0 0 800 800;" xml:space="preserve">
<style type="text/css">
	.st0{fill:#FBB03B;}
</style>
<g>
	<g>
		<path class="st0" d="M400,35.9c-149.4,0-271,121.6-271,271c0,61.4,48.7,160.5,140.8,286.6c52.8,72.2,106.1,134.3,130.2,161.6
			c24.1-27.3,77.4-89.4,130.2-161.6C622.3,467.4,671,368.3,671,306.9C671,157.5,549.4,35.9,400,35.9z M550.9,395.3
			c-28.2,42.5-76.2,81.4-142.7,115.7c-2.6,1.3-5.4,2-8.2,2c-2.8,0-5.6-0.7-8.2-2c-66.5-34.3-114.5-73.2-142.7-115.7
			c-31.3-47.2-30.6-87.1-24.5-112.2c11.7-48.4,54.6-83.5,102-83.5c27.8,0,53.3,11.7,73.5,33.3c20.2-21.7,45.6-33.3,73.5-33.3
			c47.4,0,90.2,35.1,102,83.5C581.5,308.2,582.2,348.1,550.9,395.3z"/>
		<path d="M473.5,199.6c-27.8,0-53.3,11.7-73.5,33.3c-20.2-21.7-45.6-33.3-73.5-33.3c-47.4,0-90.3,35.1-102,83.5
			c-6.1,25.1-6.8,65,24.5,112.2c28.2,42.5,76.2,81.4,142.7,115.7c2.6,1.3,5.4,2,8.2,2c2.8,0,5.6-0.7,8.2-2
			c66.5-34.3,114.5-73.2,142.7-115.7c31.3-47.2,30.6-87.1,24.5-112.2C563.7,234.7,520.8,199.6,473.5,199.6z M259.4,291.5
			c7.9-32.5,36.1-56.1,67.1-56.1c22.7,0,43.4,12.9,58.4,36.4c3.3,5.2,9,8.3,15.1,8.3c6.1,0,11.8-3.1,15.1-8.3
			c15-23.5,35.7-36.4,58.3-36.4c31,0,59.2,23.6,67.1,56.1c14.6,60.1-37.8,128.2-140.6,183.2C297.3,419.7,244.8,351.6,259.4,291.5z"
			/>
		<path d="M400,0C230.8,0,93.1,137.7,93.1,306.9c0,164.7,281.7,474.2,293.7,487.3c3.4,3.7,8.2,5.8,13.2,5.8c5,0,9.8-2.1,13.2-5.8
			c12-13.1,293.7-322.6,293.7-487.3C706.9,137.7,569.2,0,400,0z M671,306.9c0,61.4-48.7,160.5-140.8,286.6
			C477.4,665.7,424.1,727.8,400,755.1c-24.1-27.3-77.4-89.4-130.2-161.6C177.7,467.4,129,368.3,129,306.9c0-149.4,121.6-271,271-271
			S671,157.5,671,306.9z"/>
	</g>
</g>
</svg>
