<svg xmlns="http://www.w3.org/2000/svg" viewBox="0 0 64 64"><g id="Layer_25" data-name="Layer 25"><rect x="13" y="9" width="38" height="52" style="fill: rgb(101, 133, 75);" id="id_123"></rect><path d="M13,61H51V23A38,38,0,0,1,13,61Z" style="fill: rgb(87, 112, 66);" id="id_124"></path><path d="M47,17V53a4,4,0,0,0-4,4H21a4,4,0,0,0-4-4V17a4,4,0,0,0,4-4H43A4,4,0,0,0,47,17Z" style="fill:#ffcd00" id="id_125"></path><path d="M29.968,57H43a4,4,0,0,1,4-4V39.968A38.156,38.156,0,0,1,29.968,57Z" style="fill:#ebbf00" id="id_126"></path><path d="M32,38s6.928-4.714,8-9c1-4-4-7-8-3-4-4-9-1-8,3C25.072,33.286,32,38,32,38Z" style="fill:#ed1c24" id="id_127"></path><polygon points="13 9 47 9 47 3 13 9" style="fill:#ed1c24" id="id_128"></polygon><path d="M51,8H48V3a.992.992,0,0,0-.36-.77.948.948,0,0,0-.81-.21S13,8,12.8,8.04A.994.994,0,0,0,12,9V61a1,1,0,0,0,1,1H51a1,1,0,0,0,1-1V9A1,1,0,0,0,51,8ZM46,4.19V8H24.42ZM50,60H14V10H50Z" style="fill:#231f20" id="id_129"></path><path d="M47,16a3.009,3.009,0,0,1-3-3,1,1,0,0,0-1-1H21a1,1,0,0,0-1,1,3.009,3.009,0,0,1-3,3,1,1,0,0,0-1,1V53a1,1,0,0,0,1,1,3.009,3.009,0,0,1,3,3,1,1,0,0,0,1,1H43a1,1,0,0,0,1-1,3.009,3.009,0,0,1,3-3,1,1,0,0,0,1-1V17A1,1,0,0,0,47,16ZM46,52.1A5.01,5.01,0,0,0,42.1,56H21.9A5.01,5.01,0,0,0,18,52.1V17.9A5.01,5.01,0,0,0,21.9,14H42.1A5.01,5.01,0,0,0,46,17.9Z" style="fill:#231f20" id="id_130"></path><path d="M38.67,23.78a5.9,5.9,0,0,0-6.67.88,5.9,5.9,0,0,0-6.67-.88,4.8,4.8,0,0,0-2.3,5.46c1.15,4.61,8.11,9.39,8.41,9.59a1.007,1.007,0,0,0,1.12,0c.3-.2,7.26-4.98,8.41-9.59A4.8,4.8,0,0,0,38.67,23.78Zm.36,4.98c-.73,2.92-4.9,6.46-7.03,8.02-2.13-1.56-6.3-5.1-7.03-8.02a2.8,2.8,0,0,1,1.35-3.24,3.284,3.284,0,0,1,1.61-.41,4.769,4.769,0,0,1,3.36,1.6,1.008,1.008,0,0,0,1.42,0c1.88-1.89,3.8-1.85,4.97-1.19A2.8,2.8,0,0,1,39.03,28.76Z" style="fill:#231f20" id="id_131"></path><path d="M40,41H24a1,1,0,0,0,0,2H40a1,1,0,0,0,0-2Z" style="fill:#231f20" id="id_132"></path><path d="M40,45H24a1,1,0,0,0,0,2H40a1,1,0,0,0,0-2Z" style="fill:#231f20" id="id_133"></path></g></svg>